<?xml version="1.0" standalone="no"?>
<!DOCTYPE svg PUBLIC "-//W3C//DTD SVG 20010904//EN"
 "http://www.w3.org/TR/2001/REC-SVG-20010904/DTD/svg10.dtd">
<svg version="1.0" xmlns="http://www.w3.org/2000/svg"
 width="1264.000000pt" height="1264.000000pt" viewBox="0 0 1264.000000 1264.000000"
 preserveAspectRatio="xMidYMid meet">
<metadata>
Created by potrace 1.11, written by Peter Selinger 2001-2013
</metadata>
<g transform="translate(0.000000,1264.000000) scale(0.100000,-0.100000)"
fill="#000000" stroke="none">
<path d="M6119 12635 c-2 -2 -42 -6 -89 -9 -82 -5 -107 -8 -195 -21 -22 -4
-56 -8 -75 -11 -19 -2 -46 -6 -60 -9 -14 -3 -36 -8 -50 -10 -14 -3 -36 -7 -50
-10 -14 -4 -36 -8 -50 -11 -14 -3 -33 -7 -42 -10 -9 -3 -25 -6 -35 -8 -54 -11
-235 -65 -308 -93 -22 -8 -41 -14 -43 -14 -1 1 -19 -6 -40 -15 -20 -9 -41 -17
-47 -18 -5 -1 -27 -10 -49 -19 -21 -9 -40 -17 -41 -17 -2 0 -38 -16 -79 -35
-42 -19 -81 -35 -86 -35 -6 0 -10 -3 -10 -7 0 -5 -21 -17 -48 -27 -26 -10 -54
-25 -62 -32 -9 -7 -31 -20 -50 -29 -19 -9 -53 -27 -75 -40 -22 -14 -55 -33
-72 -42 -18 -9 -33 -20 -33 -25 0 -4 -7 -8 -15 -8 -8 0 -15 -4 -15 -10 0 -5
-5 -10 -12 -10 -6 0 -27 -12 -47 -27 -20 -15 -38 -28 -41 -27 -3 0 -10 -4 -16
-10 -6 -6 -27 -22 -47 -36 -20 -14 -37 -28 -37 -32 0 -5 -6 -8 -14 -8 -8 0
-16 -4 -18 -8 -1 -5 -28 -27 -58 -51 -125 -96 -360 -322 -475 -455 -27 -32
-54 -63 -60 -70 -68 -77 -279 -379 -306 -440 -7 -14 -16 -26 -21 -26 -4 0 -8
-9 -8 -20 0 -11 -4 -20 -9 -20 -5 0 -14 -15 -22 -32 -7 -18 -15 -35 -19 -38
-6 -5 -104 -201 -105 -210 0 -3 -8 -21 -17 -40 -9 -19 -26 -62 -39 -95 -13
-33 -26 -64 -30 -70 -3 -5 -19 -48 -33 -95 -15 -47 -30 -92 -33 -100 -4 -8 -7
-18 -8 -22 -2 -5 -3 -9 -5 -10 -1 -2 -3 -10 -5 -18 -7 -26 -25 -94 -30 -110
-11 -40 -37 -147 -39 -165 -1 -12 -6 -26 -10 -33 -4 -7 -5 -12 -2 -12 2 0 1
-14 -4 -30 -10 -34 -23 -121 -24 -162 -1 -16 -3 -28 -6 -28 -3 0 -6 -8 -6 -17
-1 -10 -4 -54 -8 -98 -4 -44 -10 -109 -13 -145 -3 -36 -6 -589 -7 -1230 l-1
-1165 -365 -1 c-201 -1 -385 -5 -410 -9 -25 -4 -52 -9 -60 -10 -8 -1 -33 -10
-55 -20 -22 -10 -46 -20 -54 -21 -8 -2 -17 -6 -20 -11 -3 -4 -18 -14 -33 -22
-16 -8 -28 -18 -28 -23 0 -4 -4 -8 -9 -8 -14 0 -111 -103 -111 -117 0 -7 -4
-13 -9 -13 -12 0 -61 -114 -77 -179 -11 -46 -13 -585 -13 -3036 0 -2037 3
-2996 10 -3030 15 -72 82 -203 129 -253 54 -57 121 -107 177 -132 l46 -20
4445 0 4445 0 46 23 c58 28 59 29 141 107 69 66 111 134 144 233 15 43 16 330
16 3068 l0 3020 -25 75 c-24 70 -61 139 -95 174 -8 8 -24 26 -35 40 -24 29
-79 70 -95 70 -6 0 -9 4 -6 9 5 7 -20 19 -41 19 -3 0 -9 5 -12 10 -3 5 -42 20
-86 33 l-80 23 -3390 0 -3390 1 1 1185 c1 1011 4 1275 14 1275 0 0 2 20 4 45
2 25 6 59 10 75 7 34 14 67 22 109 2 16 14 61 25 100 18 61 26 90 43 151 7 26
19 63 31 90 7 17 23 55 35 85 41 99 82 185 92 191 5 3 9 9 8 13 -3 16 144 259
160 264 5 2 10 9 10 15 0 7 10 24 23 37 12 14 33 41 47 60 33 47 62 80 145
168 39 40 72 77 73 83 2 5 7 9 11 9 5 0 34 24 64 53 31 28 62 57 69 62 7 6 33
26 58 45 25 19 47 38 48 42 2 5 10 8 17 8 7 0 15 4 17 9 3 10 186 128 233 151
17 8 32 17 35 20 8 8 168 84 235 111 33 13 62 26 65 29 3 3 10 5 15 5 6 0 48
13 95 28 124 40 138 44 210 61 71 16 145 29 173 30 9 0 17 3 17 6 0 3 15 6 33
6 17 1 77 5 132 9 127 11 274 11 395 0 52 -4 106 -9 120 -10 14 -1 39 -5 55
-8 17 -4 46 -9 65 -12 19 -3 53 -9 75 -14 22 -5 56 -12 75 -16 19 -4 91 -26
160 -48 69 -23 127 -42 130 -42 3 -1 23 -9 45 -20 22 -10 45 -19 52 -20 20 -5
208 -100 211 -107 2 -5 8 -8 14 -8 9 0 114 -61 143 -83 6 -4 47 -33 91 -65
177 -125 349 -286 484 -452 52 -64 160 -219 160 -230 0 -4 3 -10 8 -12 19 -8
146 -246 186 -348 10 -25 24 -58 31 -75 24 -54 87 -264 106 -350 16 -74 17
-79 23 -119 20 -122 26 -180 31 -276 2 -41 4 -76 5 -77 7 -8 5 -30 -2 -45 -6
-12 -5 -18 2 -18 8 0 8 -6 0 -20 -8 -14 -8 -20 0 -20 7 0 8 -6 0 -19 -7 -14
-7 -22 0 -26 6 -4 7 -11 3 -18 -10 -16 -10 -57 0 -57 4 0 3 -9 -3 -19 -7 -13
-7 -22 0 -26 7 -4 7 -13 0 -26 -6 -10 -7 -19 -3 -19 4 0 8 -13 8 -30 0 -16 -4
-30 -8 -30 -4 0 -3 -9 3 -19 7 -13 7 -22 0 -26 -7 -4 -7 -12 0 -25 7 -13 7
-21 0 -25 -8 -5 -8 -11 -1 -19 6 -7 8 -16 4 -19 -9 -10 -10 -58 -1 -84 4 -14
3 -23 -3 -23 -6 0 -6 -7 1 -20 6 -12 7 -20 1 -20 -10 0 -9 -25 2 -36 3 -4 2
-15 -4 -25 -6 -13 -6 -19 0 -19 7 0 7 -9 1 -25 -6 -17 -6 -25 1 -25 6 0 7 -6
0 -17 -5 -10 -5 -26 0 -40 5 -14 5 -23 -1 -23 -6 0 -6 -9 0 -25 6 -15 6 -26
-1 -30 -5 -4 -6 -12 -2 -18 10 -16 10 -48 0 -69 -5 -11 -4 -18 3 -18 8 0 8 -6
0 -20 -8 -14 -8 -20 0 -20 7 0 8 -6 0 -19 -7 -14 -7 -22 0 -26 6 -4 7 -11 3
-18 -10 -16 -10 -57 0 -57 4 0 3 -9 -3 -19 -7 -13 -7 -22 0 -26 7 -4 7 -13 0
-26 -7 -12 -7 -19 -1 -19 6 0 6 -11 1 -30 -5 -19 -5 -30 1 -30 6 0 6 -7 -1
-19 -7 -14 -7 -22 0 -26 8 -5 8 -11 0 -20 -6 -7 -7 -16 -2 -19 9 -5 8 -59 -3
-75 -3 -6 -1 -11 5 -11 8 0 8 -6 0 -20 -8 -14 -8 -20 0 -20 8 0 8 -6 0 -20 -8
-14 -8 -20 0 -20 8 0 8 -6 0 -20 -8 -14 -8 -20 0 -20 8 0 8 -6 0 -20 -8 -14
-8 -20 0 -20 7 0 8 -6 0 -19 -7 -14 -7 -22 0 -26 8 -5 7 -11 -1 -21 -9 -11 -7
-14 12 -15 119 -4 1068 -1 1075 4 9 5 10 1846 1 1932 -2 22 -8 74 -12 115 -5
41 -9 89 -11 105 -1 17 -3 30 -4 30 -2 0 -6 22 -14 75 -2 19 -8 49 -11 65 -4
17 -8 39 -10 50 -2 11 -8 43 -14 70 -6 28 -13 59 -15 70 -7 35 -54 198 -71
250 -10 28 -18 55 -19 60 -2 6 -10 27 -19 49 -9 21 -17 42 -17 47 0 13 -62
162 -72 173 -4 6 -8 18 -8 28 0 10 -4 18 -10 18 -5 0 -10 7 -10 15 0 8 -9 30
-20 50 -11 19 -17 35 -14 35 4 0 2 6 -4 13 -10 11 -49 83 -104 187 -12 25 -26
47 -30 48 -5 2 -8 10 -8 18 0 8 -4 14 -10 14 -5 0 -10 7 -10 15 0 8 -4 15 -10
15 -5 0 -10 4 -10 10 0 10 -76 131 -88 140 -4 3 -13 17 -21 33 -8 15 -18 27
-23 27 -4 0 -8 6 -8 14 0 8 -3 16 -7 18 -5 2 -27 28 -50 58 -23 30 -53 67 -65
81 -13 15 -35 42 -50 60 -14 19 -54 63 -87 99 -34 36 -61 69 -61 73 0 5 -4 5
-10 2 -5 -3 -10 -2 -10 4 0 5 -18 27 -41 48 -22 21 -63 59 -90 86 -27 26 -52
47 -54 47 -3 0 -13 8 -23 18 -38 36 -89 79 -147 122 -33 25 -69 53 -79 63 -11
9 -26 17 -33 17 -8 0 -11 5 -8 10 3 6 2 10 -3 10 -5 0 -54 30 -108 66 -96 63
-267 164 -280 164 -3 0 -17 9 -31 20 -14 11 -34 20 -44 20 -11 0 -19 5 -19 11
0 5 -4 8 -9 5 -5 -4 -11 -3 -13 2 -1 4 -48 27 -103 51 -55 24 -119 52 -142 62
-24 11 -49 19 -56 19 -7 0 -18 5 -25 12 -7 7 -12 8 -12 4 0 -5 -6 -4 -12 1
-15 12 -147 55 -223 74 -27 6 -56 16 -62 22 -7 5 -13 7 -13 4 0 -3 -31 3 -70
13 -38 10 -70 16 -70 13 0 -3 -7 0 -15 7 -8 7 -15 10 -15 7 0 -3 -17 -1 -37 4
-21 5 -56 11 -78 14 -22 3 -51 7 -65 10 -48 10 -65 13 -130 19 -36 4 -78 9
-95 12 -38 6 -541 14 -546 9z"/>
</g>
</svg>
