<?xml version="1.0" encoding="UTF-8" standalone="no"?>
<!DOCTYPE svg PUBLIC "-//W3C//DTD SVG 1.1//EN" "http://www.w3.org/Graphics/SVG/1.1/DTD/svg11.dtd">
<svg version="1.1" xmlns="http://www.w3.org/2000/svg" xmlns:xlink="http://www.w3.org/1999/xlink" preserveAspectRatio="xMidYMid meet" viewBox="0 0 120 158" width="120" height="158"><defs><path d="M29.27 85.31C29.27 60.85 29.27 47.27 29.27 44.55C29.27 27.57 43.05 13.69 60.14 13.69C77.12 13.69 91 27.47 91 44.55C91 45.95 91 52.94 91 65.53L104.69 65.53C104.69 52.94 104.69 45.95 104.69 44.55C104.69 19.98 84.71 0 60.14 0C35.56 0 15.58 19.98 15.58 44.55C15.58 48.18 15.58 66.33 15.58 98.99L76.92 98.99L76.92 85.31L29.27 85.31Z" id="c3ap19Erqf"></path><path d="M0 151.54C0 155.33 3.1 158.43 6.89 158.43C17.52 158.43 102.55 158.43 113.18 158.43C116.97 158.43 120.07 155.33 120.07 151.54C120.07 144.25 120.07 85.91 120.07 78.62C120.07 74.82 116.97 71.72 113.18 71.72C102.55 71.72 17.52 71.72 6.89 71.72C3.1 71.72 0 74.82 0 78.62C0 93.2 0 144.25 0 151.54Z" id="b1CqxFcigO"></path><path d="M60.04 71.72L60.04 158.43C91.92 158.43 109.64 158.43 113.18 158.43C116.97 158.43 120.07 155.33 120.07 151.54C120.07 144.25 120.07 85.91 120.07 78.62C120.07 74.82 116.97 71.72 113.18 71.72C106.09 71.72 88.38 71.72 60.04 71.72Z" id="c1DEGVM1OS"></path><path d="M60.04 94.7C53.04 94.7 47.35 100.39 47.35 107.39C47.35 112.68 50.65 117.27 55.24 119.17C55.24 120.26 55.24 125.73 55.24 135.55L64.83 135.55C64.83 125.73 64.83 120.26 64.83 119.17C69.43 117.27 72.72 112.68 72.72 107.39C72.72 100.39 67.03 94.7 60.04 94.7Z" id="aWum7Z8a"></path></defs><g><g><g><use xlink:href="#c3ap19Erqf" opacity="1" fill="#58595b" fill-opacity="1"></use><g><use xlink:href="#c3ap19Erqf" opacity="1" fill-opacity="0" stroke="#000000" stroke-width="1" stroke-opacity="0"></use></g></g><g><use xlink:href="#b1CqxFcigO" opacity="1" fill="#ffde17" fill-opacity="1"></use><g><use xlink:href="#b1CqxFcigO" opacity="1" fill-opacity="0" stroke="#000000" stroke-width="1" stroke-opacity="0"></use></g></g><g><use xlink:href="#c1DEGVM1OS" opacity="1" fill="#f5bb21" fill-opacity="1"></use><g><use xlink:href="#c1DEGVM1OS" opacity="1" fill-opacity="0" stroke="#000000" stroke-width="1" stroke-opacity="0"></use></g></g><g><use xlink:href="#aWum7Z8a" opacity="1" fill="#58595b" fill-opacity="1"></use><g><use xlink:href="#aWum7Z8a" opacity="1" fill-opacity="0" stroke="#000000" stroke-width="1" stroke-opacity="0"></use></g></g></g></g></svg>